<?xml version="1.0" encoding="UTF-8"?>
<svg width="48px" height="48px" viewBox="0 0 48 48" version="1.1" xmlns="http://www.w3.org/2000/svg" xmlns:xlink="http://www.w3.org/1999/xlink">
    <title>文档</title>
    <g id="小程序模版" stroke="none" stroke-width="1" fill="none" fill-rule="evenodd">
        <g id="网盘改" transform="translate(-16.000000, -142.000000)">
            <g id="6.Table/列表/聊天备份-4" transform="translate(0.000000, 130.000000)">
                <g id="文档" transform="translate(16.000000, 12.000000)">
                    <rect id="矩形" fill="#EFF2F5" x="0" y="0" width="48" height="48" rx="4"></rect>
                    <g id="复制" transform="translate(8.000000, 8.000000)" fill-rule="nonzero">
                        <rect id="矩形" fill="#000000" opacity="0" x="0" y="0" width="32" height="32"></rect>
                        <path d="M23.003125,1.996875 L29.034375,7.996875 L29.034375,21.99375 C29.034375,24.19375 27.234375,25.99375 25.034375,25.99375 L25.034375,25.99375 L23.003125,25.99375 C23.003125,28.19375 21.203125,29.99375 19.003125,29.99375 L19.003125,29.99375 L7,29.99375 C4.8,29.99375 3,28.19375 3,25.99375 L3,25.99375 L3,21.984375 C3,21.43125 3.453125,20.98125 4.009375,20.98125 C4.565625,20.98125 5.015625,21.43125 5.015625,21.984375 L5.015625,21.984375 L5.015625,25.9875 C5.015625,27.0875 5.915625,27.9875 7.015625,27.9875 L7.015625,27.9875 L19.003125,27.9875 C20.103125,27.9875 21,27.09375 21.003125,25.99375 L21.003125,25.99375 L13.03125,25.99375 C10.83125,25.99375 9.03125,24.19375 9.03125,21.99375 L9.03125,21.99375 L9.03125,8 L7.015625,8 C5.915625,8 5.015625,8.9 5.015625,10 L5.015625,10 L5.015625,13.99375 C5.015625,14.546875 4.565625,14.996875 4.009375,14.996875 C3.453125,14.996875 3,14.55 3.003125,13.996875 L3.003125,13.996875 L3.003125,9.996875 C3.003125,7.796875 4.803125,5.996875 7.003125,5.996875 L7.003125,5.996875 L9.03125,5.996875 C9.03125,3.796875 10.83125,1.996875 13.03125,1.996875 L13.03125,1.996875 L23.003125,1.996875 Z M20.96875,3.978125 L13.003125,3.978125 C11.903125,3.978125 11.003125,4.878125 11.003125,5.978125 L11.003125,5.978125 L11.003125,22.009375 C11.003125,23.109375 11.903125,24.009375 13.003125,24.009375 L13.003125,24.009375 L25.00625,24.009375 C26.10625,24.009375 27.00625,23.109375 27.00625,22.009375 L27.00625,22.009375 L27.00625,9.96875 L24.96875,9.96875 C22.76875,9.96875 20.96875,8.16875 20.96875,5.96875 L20.96875,5.96875 L20.96875,3.978125 Z M14.76875,17.9874832 L23.190625,18.053125 C23.6375,18.05625 24.003125,18.496875 24.003125,19.034375 C24.003125,19.571875 23.6375,20.009375 23.190625,20.003125 L23.190625,20.003125 L14.76875,19.9375 C14.321875,19.934375 13.95625,19.49375 13.95625,18.95625 C13.95625,18.41875 14.321875,17.984375 14.76875,17.9874832 L14.76875,17.9874832 Z M4.009375,16.9875 C4.56511153,16.9875 5.015625,17.4366144 5.015625,17.990625 C5.015625,18.5446356 4.56511153,18.99375 4.009375,18.99375 C3.45363847,18.99375 3.003125,18.5446356 3.003125,17.990625 C3.003125,17.4366144 3.45363847,16.9875 4.009375,16.9875 Z M14.76875,14.0187332 L23.190625,14.084375 C23.6375,14.0875 24.003125,14.528125 24.003125,15.065625 C24.003125,15.603125 23.6375,16.0375 23.190625,16.0343918 L23.190625,16.0343918 L14.76875,15.96875 C14.321875,15.965625 13.95625,15.525 13.95625,14.9875 C13.95625,14.45 14.321875,14.015625 14.76875,14.0187332 L14.76875,14.0187332 Z M23.00625,3.978125 L23,3.978125 L23,5.9875 C23,7.0875 23.9,7.9875 25,7.9875 L25,7.9875 L26.996875,7.9875 L23.00625,3.978125 Z" id="形状结合" fill="#4D4D4D"></path>
                    </g>
                </g>
            </g>
        </g>
    </g>
</svg>