<?xml version="1.0" encoding="UTF-8"?>
<svg width="48px" height="48px" viewBox="0 0 48 48" version="1.1" xmlns="http://www.w3.org/2000/svg" xmlns:xlink="http://www.w3.org/1999/xlink">
    <title>图片</title>
    <g id="小程序模版" stroke="none" stroke-width="1" fill="none" fill-rule="evenodd">
        <g id="网盘改" transform="translate(-16.000000, -358.000000)">
            <g id="6.Table/列表/聊天备份-3" transform="translate(0.000000, 346.000000)">
                <g id="图片" transform="translate(16.000000, 12.000000)">
                    <rect id="矩形" fill="#EFF2F5" x="0" y="0" width="48" height="48" rx="4"></rect>
                    <g transform="translate(8.000000, 8.000000)" fill-rule="nonzero">
                        <rect id="矩形" fill="#000000" opacity="0" x="0" y="0" width="32" height="32"></rect>
                        <path d="M24.3773585,3 C26.4208999,3 28.0928882,4.67198839 28.0928882,6.71552975 L28.0928882,6.71552975 L28.0928882,25.2844702 C28.0928882,27.3280116 26.4208999,29 24.3773585,29 L24.3773585,29 L22.5108853,29 L22.5108853,28.9970972 C21.9912917,28.9970972 21.5732946,28.5791001 21.5732946,28.065312 C21.5732946,27.5515239 21.9912917,27.1335269 22.5079826,27.1335269 L22.5079826,27.1335269 L24.4063861,27.1335269 C25.4281567,27.1335269 26.2641509,26.3004354 26.2612482,25.2815675 L26.2612482,25.2815675 L26.249,19.679 L26.2496372,21.6386067 C26.245283,21.6342525 26.2409289,21.6291727 26.2365747,21.6240929 L26.2235123,21.6095791 L20.9433962,16.329463 C20.7634253,16.149492 20.467344,16.149492 20.287373,16.329463 L20.287373,16.329463 L14.8940493,21.7227866 C14.7227866,21.8853411 14.490566,21.9898403 14.2322206,21.9898403 C13.9419448,21.9898403 13.6835994,21.8592163 13.5123367,21.6531205 L13.5123367,21.6531205 L13.509434,21.6560232 L10.2554427,18.4020319 C10.0754717,18.222061 9.77939042,18.222061 9.59941945,18.4020319 L9.59941945,18.4020319 L5.78519594,22.2162554 L5.79100145,25.2815675 C5.79100145,26.3004354 6.6298984,27.1335269 7.65166909,27.1335269 L7.65166909,27.1335269 L15.0217707,27.1335269 C15.5384615,27.1335269 15.9564586,27.5515239 15.9564586,28.065312 C15.9564586,28.5791001 15.5384615,28.9970972 15.0217707,28.9970972 L15.0217707,28.9970972 L15.0217707,29 L7.71552975,29 C5.67198839,29 4,27.3280116 4,25.2844702 L4,25.2844702 L4,6.71552975 C4,4.67198839 5.67198839,3 7.71552975,3 L7.71552975,3 Z M18.766328,27.1335269 C19.2825419,27.1335269 19.701016,27.5507013 19.701016,28.065312 C19.701016,28.5799228 19.2825419,28.9970972 18.766328,28.9970972 C18.2501141,28.9970972 17.8316401,28.5799228 17.8316401,28.065312 C17.8316401,27.5507013 18.2501141,27.1335269 18.766328,27.1335269 Z M24.3628447,4.8838897 L7.60812772,4.8838897 C6.58635704,4.8838897 5.75036284,5.71698113 5.75325807,6.73584906 L5.75325807,6.73584906 L5.77939042,19.5834543 L8.92597968,16.4397678 C9.50072569,15.8650218 10.4441219,15.8650218 11.0188679,16.4397678 L11.0188679,16.4397678 L14.2583454,19.6792453 L19.5558781,14.3817126 C20.1306241,13.8069666 21.0740203,13.8069666 21.6487663,14.3817126 L21.6487663,14.3817126 L26.2496372,18.9825835 L26.2235123,6.73584906 C26.2235123,5.71698113 25.3846154,4.8838897 24.3628447,4.8838897 L24.3628447,4.8838897 Z M12.5195936,7.88534107 C14.0493469,7.88534107 15.2888244,9.12481858 15.2859267,10.6516691 C15.2859267,12.1785196 14.0493469,13.4179971 12.5195936,13.4179971 C10.9927431,13.4179971 9.7532656,12.1814224 9.7532656,10.6516691 C9.7532656,9.12481858 10.9898403,7.88534107 12.5195936,7.88534107 Z M12.5195936,9.7053701 C11.9970972,9.7053701 11.5732946,10.1291727 11.5732946,10.6516691 C11.5732946,11.1741655 11.9970972,11.5979681 12.5195936,11.5979681 C13.04209,11.5979681 13.4658926,11.1741655 13.4658926,10.6516691 C13.4658926,10.1291727 13.04209,9.7053701 12.5195936,9.7053701 Z" id="形状结合" fill="#515151"></path>
                    </g>
                </g>
            </g>
        </g>
    </g>
</svg>